<mxfile host="Electron" agent="Mozilla/5.0 (Windows NT 10.0; Win64; x64) AppleWebKit/537.36 (KHTML, like Gecko) draw.io/24.7.8 Chrome/128.0.6613.36 Electron/32.0.1 Safari/537.36" version="24.7.8">
  <diagram id="prtHgNgQTEPvFCAcTncT" name="Page-1">
    <mxGraphModel dx="1720" dy="892" grid="1" gridSize="10" guides="1" tooltips="1" connect="1" arrows="1" fold="1" page="1" pageScale="1" pageWidth="827" pageHeight="1169" math="0" shadow="0">
      <root>
        <mxCell id="0" />
        <mxCell id="1" parent="0" />
        <mxCell id="apMtV5OS-mfI2KvNIrsZ-10" value="" style="edgeStyle=orthogonalEdgeStyle;rounded=0;orthogonalLoop=1;jettySize=auto;html=1;entryX=0.5;entryY=0;entryDx=0;entryDy=0;exitX=0.5;exitY=1;exitDx=0;exitDy=0;" edge="1" parent="1" source="apMtV5OS-mfI2KvNIrsZ-1" target="apMtV5OS-mfI2KvNIrsZ-9">
          <mxGeometry relative="1" as="geometry" />
        </mxCell>
        <mxCell id="apMtV5OS-mfI2KvNIrsZ-13" style="edgeStyle=orthogonalEdgeStyle;rounded=0;orthogonalLoop=1;jettySize=auto;html=1;exitX=0.5;exitY=1;exitDx=0;exitDy=0;entryX=0.5;entryY=0;entryDx=0;entryDy=0;" edge="1" parent="1" source="apMtV5OS-mfI2KvNIrsZ-1" target="apMtV5OS-mfI2KvNIrsZ-11">
          <mxGeometry relative="1" as="geometry" />
        </mxCell>
        <mxCell id="apMtV5OS-mfI2KvNIrsZ-19" style="edgeStyle=orthogonalEdgeStyle;rounded=0;orthogonalLoop=1;jettySize=auto;html=1;exitX=0.5;exitY=1;exitDx=0;exitDy=0;entryX=0.5;entryY=0;entryDx=0;entryDy=0;" edge="1" parent="1" source="apMtV5OS-mfI2KvNIrsZ-1" target="apMtV5OS-mfI2KvNIrsZ-15">
          <mxGeometry relative="1" as="geometry" />
        </mxCell>
        <mxCell id="apMtV5OS-mfI2KvNIrsZ-20" style="edgeStyle=orthogonalEdgeStyle;rounded=0;orthogonalLoop=1;jettySize=auto;html=1;exitX=0.5;exitY=1;exitDx=0;exitDy=0;" edge="1" parent="1" source="apMtV5OS-mfI2KvNIrsZ-1" target="apMtV5OS-mfI2KvNIrsZ-16">
          <mxGeometry relative="1" as="geometry" />
        </mxCell>
        <mxCell id="apMtV5OS-mfI2KvNIrsZ-24" style="edgeStyle=orthogonalEdgeStyle;rounded=0;orthogonalLoop=1;jettySize=auto;html=1;exitX=0.5;exitY=1;exitDx=0;exitDy=0;entryX=0.5;entryY=0;entryDx=0;entryDy=0;" edge="1" parent="1" source="apMtV5OS-mfI2KvNIrsZ-1" target="apMtV5OS-mfI2KvNIrsZ-23">
          <mxGeometry relative="1" as="geometry" />
        </mxCell>
        <mxCell id="apMtV5OS-mfI2KvNIrsZ-1" value="&lt;div&gt;1. Dự án phần mềm quản lý thư viện&lt;/div&gt;" style="rounded=1;whiteSpace=wrap;html=1;" vertex="1" parent="1">
          <mxGeometry x="354" y="90" width="120" height="60" as="geometry" />
        </mxCell>
        <mxCell id="apMtV5OS-mfI2KvNIrsZ-31" style="edgeStyle=orthogonalEdgeStyle;rounded=0;orthogonalLoop=1;jettySize=auto;html=1;exitX=0.5;exitY=1;exitDx=0;exitDy=0;entryX=0;entryY=0.5;entryDx=0;entryDy=0;" edge="1" parent="1" source="apMtV5OS-mfI2KvNIrsZ-9" target="apMtV5OS-mfI2KvNIrsZ-27">
          <mxGeometry relative="1" as="geometry" />
        </mxCell>
        <mxCell id="apMtV5OS-mfI2KvNIrsZ-38" style="edgeStyle=orthogonalEdgeStyle;rounded=0;orthogonalLoop=1;jettySize=auto;html=1;exitX=0.5;exitY=1;exitDx=0;exitDy=0;entryX=0;entryY=0.5;entryDx=0;entryDy=0;" edge="1" parent="1" source="apMtV5OS-mfI2KvNIrsZ-9" target="apMtV5OS-mfI2KvNIrsZ-35">
          <mxGeometry relative="1" as="geometry" />
        </mxCell>
        <mxCell id="apMtV5OS-mfI2KvNIrsZ-9" value="&lt;div&gt;1.1. Khởi động dự án&lt;/div&gt;" style="rounded=1;whiteSpace=wrap;html=1;" vertex="1" parent="1">
          <mxGeometry x="130" y="250" width="120" height="60" as="geometry" />
        </mxCell>
        <mxCell id="apMtV5OS-mfI2KvNIrsZ-42" style="edgeStyle=orthogonalEdgeStyle;rounded=0;orthogonalLoop=1;jettySize=auto;html=1;exitX=0.5;exitY=1;exitDx=0;exitDy=0;entryX=0;entryY=0.5;entryDx=0;entryDy=0;" edge="1" parent="1" source="apMtV5OS-mfI2KvNIrsZ-11" target="apMtV5OS-mfI2KvNIrsZ-40">
          <mxGeometry relative="1" as="geometry" />
        </mxCell>
        <mxCell id="apMtV5OS-mfI2KvNIrsZ-43" style="edgeStyle=orthogonalEdgeStyle;rounded=0;orthogonalLoop=1;jettySize=auto;html=1;exitX=0.5;exitY=1;exitDx=0;exitDy=0;entryX=0;entryY=0.5;entryDx=0;entryDy=0;" edge="1" parent="1" source="apMtV5OS-mfI2KvNIrsZ-11" target="apMtV5OS-mfI2KvNIrsZ-41">
          <mxGeometry relative="1" as="geometry" />
        </mxCell>
        <mxCell id="apMtV5OS-mfI2KvNIrsZ-45" style="edgeStyle=orthogonalEdgeStyle;rounded=0;orthogonalLoop=1;jettySize=auto;html=1;exitX=0.5;exitY=1;exitDx=0;exitDy=0;entryX=0;entryY=0.5;entryDx=0;entryDy=0;" edge="1" parent="1" source="apMtV5OS-mfI2KvNIrsZ-11" target="apMtV5OS-mfI2KvNIrsZ-44">
          <mxGeometry relative="1" as="geometry" />
        </mxCell>
        <mxCell id="apMtV5OS-mfI2KvNIrsZ-11" value="&lt;div&gt;1.2. Thiết kế hệ thống&lt;/div&gt;" style="rounded=1;whiteSpace=wrap;html=1;" vertex="1" parent="1">
          <mxGeometry x="520" y="250" width="120" height="60" as="geometry" />
        </mxCell>
        <mxCell id="apMtV5OS-mfI2KvNIrsZ-52" style="edgeStyle=orthogonalEdgeStyle;rounded=0;orthogonalLoop=1;jettySize=auto;html=1;exitX=0.5;exitY=1;exitDx=0;exitDy=0;entryX=0;entryY=0.5;entryDx=0;entryDy=0;" edge="1" parent="1" source="apMtV5OS-mfI2KvNIrsZ-15" target="apMtV5OS-mfI2KvNIrsZ-46">
          <mxGeometry relative="1" as="geometry" />
        </mxCell>
        <mxCell id="apMtV5OS-mfI2KvNIrsZ-53" style="edgeStyle=orthogonalEdgeStyle;rounded=0;orthogonalLoop=1;jettySize=auto;html=1;exitX=0.5;exitY=1;exitDx=0;exitDy=0;entryX=0;entryY=0.5;entryDx=0;entryDy=0;" edge="1" parent="1" source="apMtV5OS-mfI2KvNIrsZ-15" target="apMtV5OS-mfI2KvNIrsZ-47">
          <mxGeometry relative="1" as="geometry" />
        </mxCell>
        <mxCell id="apMtV5OS-mfI2KvNIrsZ-15" value="&lt;div&gt;1.3. Phát triển hệ thống&lt;/div&gt;" style="rounded=1;whiteSpace=wrap;html=1;" vertex="1" parent="1">
          <mxGeometry x="840" y="250" width="120" height="60" as="geometry" />
        </mxCell>
        <mxCell id="apMtV5OS-mfI2KvNIrsZ-16" value="&lt;div&gt;1.4. Triển khai&lt;/div&gt;" style="rounded=1;whiteSpace=wrap;html=1;" vertex="1" parent="1">
          <mxGeometry x="1190" y="250" width="120" height="60" as="geometry" />
        </mxCell>
        <mxCell id="apMtV5OS-mfI2KvNIrsZ-23" value="&lt;div&gt;1.5. Bàn giao&lt;/div&gt;" style="rounded=1;whiteSpace=wrap;html=1;" vertex="1" parent="1">
          <mxGeometry x="1420" y="250" width="120" height="60" as="geometry" />
        </mxCell>
        <mxCell id="apMtV5OS-mfI2KvNIrsZ-25" value="" style="edgeStyle=orthogonalEdgeStyle;rounded=0;orthogonalLoop=1;jettySize=auto;html=1;entryX=0;entryY=0.5;entryDx=0;entryDy=0;" edge="1" parent="1" source="apMtV5OS-mfI2KvNIrsZ-27" target="apMtV5OS-mfI2KvNIrsZ-28">
          <mxGeometry relative="1" as="geometry" />
        </mxCell>
        <mxCell id="apMtV5OS-mfI2KvNIrsZ-26" style="edgeStyle=orthogonalEdgeStyle;rounded=0;orthogonalLoop=1;jettySize=auto;html=1;exitX=0.5;exitY=1;exitDx=0;exitDy=0;entryX=0;entryY=0.5;entryDx=0;entryDy=0;" edge="1" parent="1" source="apMtV5OS-mfI2KvNIrsZ-27" target="apMtV5OS-mfI2KvNIrsZ-29">
          <mxGeometry relative="1" as="geometry" />
        </mxCell>
        <mxCell id="apMtV5OS-mfI2KvNIrsZ-27" value="&lt;div&gt;1.1.1. Xác định yêu cầu của dự án&lt;/div&gt;" style="rounded=1;whiteSpace=wrap;html=1;" vertex="1" parent="1">
          <mxGeometry x="230" y="360" width="120" height="60" as="geometry" />
        </mxCell>
        <mxCell id="apMtV5OS-mfI2KvNIrsZ-28" value="&lt;div&gt;1.1.1.1. Họp khởi động dự án&lt;/div&gt;" style="rounded=1;whiteSpace=wrap;html=1;" vertex="1" parent="1">
          <mxGeometry x="330" y="440" width="120" height="60" as="geometry" />
        </mxCell>
        <mxCell id="apMtV5OS-mfI2KvNIrsZ-29" value="&lt;div&gt;1.1.1.2. Xác định mục tiêu và phạm vi&lt;/div&gt;" style="rounded=1;whiteSpace=wrap;html=1;" vertex="1" parent="1">
          <mxGeometry x="330" y="531" width="120" height="60" as="geometry" />
        </mxCell>
        <mxCell id="apMtV5OS-mfI2KvNIrsZ-33" value="" style="edgeStyle=orthogonalEdgeStyle;rounded=0;orthogonalLoop=1;jettySize=auto;html=1;entryX=0;entryY=0.5;entryDx=0;entryDy=0;" edge="1" parent="1" source="apMtV5OS-mfI2KvNIrsZ-35" target="apMtV5OS-mfI2KvNIrsZ-36">
          <mxGeometry relative="1" as="geometry" />
        </mxCell>
        <mxCell id="apMtV5OS-mfI2KvNIrsZ-34" style="edgeStyle=orthogonalEdgeStyle;rounded=0;orthogonalLoop=1;jettySize=auto;html=1;exitX=0.5;exitY=1;exitDx=0;exitDy=0;entryX=0;entryY=0.5;entryDx=0;entryDy=0;" edge="1" parent="1" source="apMtV5OS-mfI2KvNIrsZ-35" target="apMtV5OS-mfI2KvNIrsZ-37">
          <mxGeometry relative="1" as="geometry" />
        </mxCell>
        <mxCell id="apMtV5OS-mfI2KvNIrsZ-35" value="&lt;div&gt;1.1.2. Xác định kế hoạch và nguồn lực&lt;/div&gt;" style="rounded=1;whiteSpace=wrap;html=1;" vertex="1" parent="1">
          <mxGeometry x="230" y="640" width="120" height="60" as="geometry" />
        </mxCell>
        <mxCell id="apMtV5OS-mfI2KvNIrsZ-36" value="&lt;div&gt;1.1.2.1. Phân công nhiệm vụ cho 4 thành viên&lt;/div&gt;" style="rounded=1;whiteSpace=wrap;html=1;" vertex="1" parent="1">
          <mxGeometry x="330" y="742" width="120" height="60" as="geometry" />
        </mxCell>
        <mxCell id="apMtV5OS-mfI2KvNIrsZ-37" value="&lt;div&gt;1.1.2.2. Lập kế hoạch về ngân sách và thời gian&lt;/div&gt;" style="rounded=1;whiteSpace=wrap;html=1;" vertex="1" parent="1">
          <mxGeometry x="330" y="833" width="120" height="60" as="geometry" />
        </mxCell>
        <mxCell id="apMtV5OS-mfI2KvNIrsZ-40" value="&lt;div&gt;1.2.1. Thiết kế giao diện người dùng&lt;/div&gt;" style="rounded=1;whiteSpace=wrap;html=1;" vertex="1" parent="1">
          <mxGeometry x="630" y="361" width="120" height="60" as="geometry" />
        </mxCell>
        <mxCell id="apMtV5OS-mfI2KvNIrsZ-41" value="&lt;div&gt;1.2.2. Thiết kế cơ sở dữ liệu&lt;/div&gt;" style="rounded=1;whiteSpace=wrap;html=1;" vertex="1" parent="1">
          <mxGeometry x="630" y="452" width="120" height="60" as="geometry" />
        </mxCell>
        <mxCell id="apMtV5OS-mfI2KvNIrsZ-44" value="&lt;div&gt;1.2.3. Chọn công nghệ phù hợp&lt;/div&gt;" style="rounded=1;whiteSpace=wrap;html=1;" vertex="1" parent="1">
          <mxGeometry x="630" y="541" width="120" height="60" as="geometry" />
        </mxCell>
        <mxCell id="apMtV5OS-mfI2KvNIrsZ-50" style="edgeStyle=orthogonalEdgeStyle;rounded=0;orthogonalLoop=1;jettySize=auto;html=1;exitX=0.5;exitY=1;exitDx=0;exitDy=0;entryX=0;entryY=0.5;entryDx=0;entryDy=0;" edge="1" parent="1" source="apMtV5OS-mfI2KvNIrsZ-46" target="apMtV5OS-mfI2KvNIrsZ-48">
          <mxGeometry relative="1" as="geometry" />
        </mxCell>
        <mxCell id="apMtV5OS-mfI2KvNIrsZ-51" style="edgeStyle=orthogonalEdgeStyle;rounded=0;orthogonalLoop=1;jettySize=auto;html=1;exitX=0.5;exitY=1;exitDx=0;exitDy=0;entryX=0;entryY=0.5;entryDx=0;entryDy=0;" edge="1" parent="1" source="apMtV5OS-mfI2KvNIrsZ-46" target="apMtV5OS-mfI2KvNIrsZ-49">
          <mxGeometry relative="1" as="geometry" />
        </mxCell>
        <mxCell id="apMtV5OS-mfI2KvNIrsZ-46" value="&lt;div&gt;1.3.1. Phát triển back end và front end&lt;/div&gt;" style="rounded=1;whiteSpace=wrap;html=1;" vertex="1" parent="1">
          <mxGeometry x="940" y="340" width="120" height="60" as="geometry" />
        </mxCell>
        <mxCell id="apMtV5OS-mfI2KvNIrsZ-47" value="&lt;div&gt;1.3.2. Kiểm thử cơ bản&lt;/div&gt;" style="rounded=1;whiteSpace=wrap;html=1;" vertex="1" parent="1">
          <mxGeometry x="940" y="600" width="120" height="60" as="geometry" />
        </mxCell>
        <mxCell id="apMtV5OS-mfI2KvNIrsZ-48" value="&lt;div&gt;1.3.1.1. Xây dựng API cơ bản và tích hợp cơ sở dữ liệu&lt;/div&gt;" style="rounded=1;whiteSpace=wrap;html=1;" vertex="1" parent="1">
          <mxGeometry x="1030" y="420" width="120" height="60" as="geometry" />
        </mxCell>
        <mxCell id="apMtV5OS-mfI2KvNIrsZ-49" value="&lt;div&gt;1.3.1.2. Xây dựng giao diện người dùng cơ bản và kết nối back end&lt;/div&gt;" style="rounded=1;whiteSpace=wrap;html=1;" vertex="1" parent="1">
          <mxGeometry x="1030" y="519" width="120" height="60" as="geometry" />
        </mxCell>
      </root>
    </mxGraphModel>
  </diagram>
</mxfile>
